<svg xmlns="http://www.w3.org/2000/svg" width="407.333" height="280.161" viewBox="0 0 407.333 280.161">
  <g id="Group_1" data-name="Group 1" transform="translate(-738 -97)">
    <path id="Path_1" data-name="Path 1" d="M5.6,244.889a5.689,5.689,0,0,1-3.992-1.468A4.946,4.946,0,0,1,0,239.53a4.836,4.836,0,0,1,1.606-3.808A5.827,5.827,0,0,1,5.6,234.3H46.34a5.735,5.735,0,0,1,3.992,1.468,4.974,4.974,0,0,1,1.606,3.854,4.808,4.808,0,0,1-1.606,3.808,5.781,5.781,0,0,1-3.992,1.422Zm20.28,53.681a5.79,5.79,0,0,1-4.221-1.606A5.322,5.322,0,0,1,20,292.973V239.75H31.933v53.223a5.267,5.267,0,0,1-1.652,3.992,6.075,6.075,0,0,1-4.4,1.606Z" transform="translate(738.006 77.664)" fill="#00fddc"/>
    <path id="Path_2" data-name="Path 2" d="M70.789,243.358c-2.083,0-3.551-.33-4.4-1.009S65.1,240.513,65.1,238.77v-1.743c0-1.771.468-2.982,1.422-3.625a7.846,7.846,0,0,1,4.359-.964c2.138,0,3.671.34,4.5,1.009a4.362,4.362,0,0,1,1.285,3.579v1.743c0,1.78-.459,2.982-1.376,3.625a8.057,8.057,0,0,1-4.5.964Zm5.6,49.46a5.506,5.506,0,0,1-1.56,3.992,5.653,5.653,0,0,1-7.892,0,5.506,5.506,0,0,1-1.56-3.992v-37.9a5.506,5.506,0,0,1,1.56-3.992,5.653,5.653,0,0,1,7.892,0,5.506,5.506,0,0,1,1.56,3.992Z" transform="translate(732.644 77.818)" fill="#00fddc"/>
    <path id="Path_3" data-name="Path 3" d="M115.494,249.84q7.341,0,10.828,3.533a17.481,17.481,0,0,1,4.588,9.13l-1.56-.826.734-1.468a21.106,21.106,0,0,1,3.4-4.542,20.811,20.811,0,0,1,5.506-4.129,15.545,15.545,0,0,1,7.341-1.7q6.607,0,10.048,2.845a14.5,14.5,0,0,1,4.726,7.571,40.191,40.191,0,0,1,1.285,10.507v23.491a5.506,5.506,0,0,1-1.56,3.992,5.653,5.653,0,0,1-7.892,0,5.506,5.506,0,0,1-1.56-3.992V270.762a18.986,18.986,0,0,0-.734-5.46,7.552,7.552,0,0,0-2.661-3.9,8.974,8.974,0,0,0-5.506-1.468,11.544,11.544,0,0,0-5.965,1.468,9.543,9.543,0,0,0-3.671,3.9,11.865,11.865,0,0,0-1.239,5.46v23.491a5.506,5.506,0,0,1-1.56,3.992,5.653,5.653,0,0,1-7.892,0,5.506,5.506,0,0,1-1.56-3.992V270.762a18.986,18.986,0,0,0-.734-5.46,7.552,7.552,0,0,0-2.661-3.9,8.974,8.974,0,0,0-5.506-1.468,11.544,11.544,0,0,0-5.965,1.468,9.543,9.543,0,0,0-3.671,3.9,11.865,11.865,0,0,0-1.239,5.46v23.491a5.506,5.506,0,0,1-1.56,3.992,5.653,5.653,0,0,1-7.892,0,5.506,5.506,0,0,1-1.56-3.992v-37.9a5.506,5.506,0,0,1,1.56-3.992,5.653,5.653,0,0,1,7.892,0,5.506,5.506,0,0,1,1.56,3.992V260.3l-1.376-.275a20.483,20.483,0,0,1,2.294-3.349,19.674,19.674,0,0,1,3.579-3.349,19.115,19.115,0,0,1,4.68-2.523A15.792,15.792,0,0,1,115.494,249.84Z" transform="translate(730.609 76.384)" fill="#00fddc"/>
    <path id="Path_4" data-name="Path 4" d="M204.317,300.769a26.9,26.9,0,0,1-13.535-3.258,22.4,22.4,0,0,1-8.809-8.855,25.767,25.767,0,0,1-3.074-12.663,27.777,27.777,0,0,1,3.349-14.077,23.665,23.665,0,0,1,8.763-8.947,22.675,22.675,0,0,1,11.47-3.12,20.9,20.9,0,0,1,8.855,1.927,24.372,24.372,0,0,1,7.387,5.276,25.84,25.84,0,0,1,5.093,7.754,23.684,23.684,0,0,1,1.881,9.36,4.726,4.726,0,0,1-1.743,3.579,5.836,5.836,0,0,1-3.854,1.376H185.047l-2.753-9.176h33.677l-2.019,1.835v-2.523a8.46,8.46,0,0,0-1.835-4.772,12.406,12.406,0,0,0-4.221-3.349,12.058,12.058,0,0,0-5.368-1.239,17.434,17.434,0,0,0-5.139.734,9.892,9.892,0,0,0-4.129,2.478,11.993,11.993,0,0,0-2.753,4.68,23.078,23.078,0,0,0-1.009,7.433,16.04,16.04,0,0,0,2.065,8.4,14.113,14.113,0,0,0,12.2,7.057,21.382,21.382,0,0,0,5.414-.551,12.149,12.149,0,0,0,3.258-1.331c.826-.514,1.569-.964,2.248-1.331a6.992,6.992,0,0,1,3.12-.826,4.588,4.588,0,0,1,4.68,4.588,5.735,5.735,0,0,1-2.569,4.5,21.325,21.325,0,0,1-6.7,3.533A26.722,26.722,0,0,1,204.317,300.769Z" transform="translate(723.271 76.383)" fill="#00fddc"/>
    <path id="Path_5" data-name="Path 5" d="M271.347,299.41a34.706,34.706,0,0,1-13.122-2.432,30.878,30.878,0,0,1-17.343-17.389,37.118,37.118,0,0,1,0-26.428,30.878,30.878,0,0,1,17.343-17.38,34.87,34.87,0,0,1,13.168-2.432,37.889,37.889,0,0,1,9.727,1.239,27.3,27.3,0,0,1,8.35,3.716,1.587,1.587,0,0,1,.642.688,2.184,2.184,0,0,1,.184.872,1.587,1.587,0,0,1-.642,1.376,1.991,1.991,0,0,1-1.1.459,1.414,1.414,0,0,1-.642-.138,4.671,4.671,0,0,0-.551-.229,35.5,35.5,0,0,0-7.433-3.12,30.281,30.281,0,0,0-8.534-1.193,29.566,29.566,0,0,0-15.1,3.808,27.327,27.327,0,0,0-10.277,10.415,32.8,32.8,0,0,0,0,30.282A26.823,26.823,0,0,0,256.3,291.941a29.723,29.723,0,0,0,15.1,3.762,29.365,29.365,0,0,0,9.039-1.422,30.418,30.418,0,0,0,7.846-3.716l-.367,1.652V269.275l1.285,1.193H271.347a1.881,1.881,0,0,1-1.835-1.835,1.725,1.725,0,0,1,.551-1.331,1.835,1.835,0,0,1,1.285-.5H289.7a1.725,1.725,0,0,1,1.331.551,1.835,1.835,0,0,1,.5,1.285v23.033a2.294,2.294,0,0,1-.184.826,2.028,2.028,0,0,1-.642.826,36.117,36.117,0,0,1-9.039,4.4,32.759,32.759,0,0,1-10.323,1.688Z" transform="translate(718.365 77.742)" fill="#00fddc"/>
    <path id="Path_6" data-name="Path 6" d="M345.695,254.44a1.725,1.725,0,0,1,1.331.551,1.835,1.835,0,0,1,.5,1.285v26.7q0,8.9-5,13.352t-13.26,4.451q-8.176,0-13.168-4.451t-5-13.352v-26.7a1.881,1.881,0,0,1,1.835-1.835,1.725,1.725,0,0,1,1.331.551,1.835,1.835,0,0,1,.5,1.285v26.7q0,6.974,3.9,10.645t10.6,3.671q6.781,0,10.69-3.671t3.9-10.645v-26.7a1.835,1.835,0,0,1,.5-1.285,1.707,1.707,0,0,1,1.331-.551Z" transform="translate(712.381 76.005)" fill="#00fddc"/>
    <path id="Path_7" data-name="Path 7" d="M369.225,300.094a1.725,1.725,0,0,1-1.331-.551,1.835,1.835,0,0,1-.5-1.285V256.14a1.881,1.881,0,0,1,1.835-1.835,1.707,1.707,0,0,1,1.331.551,1.835,1.835,0,0,1,.5,1.285v15.508l-1.56,2.386a22.583,22.583,0,0,1,1.2-7.286,24.271,24.271,0,0,1,3.625-6.836,19.271,19.271,0,0,1,5.827-5.139,15.719,15.719,0,0,1,7.937-1.973,11.606,11.606,0,0,1,2.753.367,1.688,1.688,0,0,1,1.468,1.744,2.046,2.046,0,0,1-.459,1.376,1.468,1.468,0,0,1-1.193.551,2.983,2.983,0,0,1-1.331-.413,4.882,4.882,0,0,0-2.248-.413,11.012,11.012,0,0,0-5.781,1.743,20.582,20.582,0,0,0-5.185,4.634,24.777,24.777,0,0,0-3.716,6.286,17.554,17.554,0,0,0-1.376,6.607v22.941a1.881,1.881,0,0,1-1.835,1.835Z" transform="translate(707.744 76.14)" fill="#00fddc"/>
    <path id="Path_8" data-name="Path 8" d="M438.786,254.44a1.707,1.707,0,0,1,1.331.551,1.835,1.835,0,0,1,.5,1.285v26.7q0,8.9-5,13.352t-13.251,4.451q-8.158,0-13.168-4.451t-5-13.352v-26.7a1.881,1.881,0,0,1,1.835-1.835,1.707,1.707,0,0,1,1.331.551,1.835,1.835,0,0,1,.5,1.285v26.7q0,6.974,3.9,10.645t10.6,3.671q6.8,0,10.69-3.671t3.9-10.645v-26.7a1.835,1.835,0,0,1,.5-1.285A1.725,1.725,0,0,1,438.786,254.44Z" transform="translate(704.712 76.005)" fill="#00fddc"/>
    <path id="Path_9" data-name="Path 9" d="M137.761,135.4c8.58-28.447,22.078-34.87,52.461-46.919,20.619-7.515,50.094-15.068,62.977-34.1,6.717-9.929,8.075-21.17,6.378-32.585A89.671,89.671,0,0,0,216.75,11c-16.8,0-35.421,2.083-50,11.379a88.873,88.873,0,0,0-14.269,11.929C135.659,50.944,129.3,74.454,129.3,96.11c0,10.929.266,23,4.184,33.576.817,2.184,3.3,3.588,4.276,5.735" transform="translate(727.355 96.056)" fill="#575757" fill-rule="evenodd"/>
    <path id="Path_10" data-name="Path 10" d="M132.863,125.573C108.316,38.012,200.41-3.749,244.465,13.062c-16.059,37.917-78.054,30.328-88.726,63.2,16.839-28.153,75.5-18.454,94.112-57.288,14.765,68.189-100.3,43.523-116.989,106.6" transform="translate(727.399 96.188)" fill="#00fddc" fill-rule="evenodd"/>
    <path id="Path_11" data-name="Path 11" d="M300.061,135.7c-6.423-23.418-17.6-35.228-52.507-47.212-20.619-7.515-50.094-15.086-62.977-34.1-6.754-9.984-8.094-21.289-6.359-32.769A89.854,89.854,0,0,1,220.723,11c22.721,0,47.359,6.2,64.583,23.225,16.82,16.637,22.858,40.229,22.858,61.885,1.45,14.058,6.01,33.035-8.1,39.6" transform="translate(723.383 96.056)" fill="#575757" fill-rule="evenodd"/>
    <path id="Path_12" data-name="Path 12" d="M305.672,125.573c24.556-87.551-67.538-129.313-111.593-112.5,16.059,37.917,78.5,10.58,88.377,52.571C274.95,33.7,207.3,57.815,188.693,18.981c-14.774,68.18,100.3,43.514,116.98,106.592" transform="translate(722.571 96.187)" fill="#00fddc" fill-rule="evenodd"/>
    <path id="Path_13" data-name="Path 13" d="M233.225,65.089c-9.855-3.515-19.16-7.185-26.786-11.929a55.407,55.407,0,0,1-6.066-4.285c-6.891-5.634-11.562-12.7-12.718-22.234-1.11,10.415,1.193,18.408,5.845,24.776a35.787,35.787,0,0,0,3.882,4.487c6.148,6.066,14.682,10.553,24.3,14.489,3.863,1.578,7.892,3.074,12.012,4.542C262.378,85.148,295.5,94.3,305,124.579a93.12,93.12,0,0,0,3.891-22.867,111.366,111.366,0,0,1-3.221,15.453c-7.506-28.373-34.916-38.99-61.481-48.295-3.671-1.294-7.341-2.56-11.012-3.854" transform="translate(722.572 94.768)" fill="#00fddc" fill-rule="evenodd"/>
    <path id="Path_14" data-name="Path 14" d="M253.459,22.753c.918.376,1.835.78,2.753,1.184a101.026,101.026,0,0,1,9.47,4.836c21.262,12.25,39.018,32.5,43.615,60a82.476,82.476,0,0,0-12.939-37.54,93.663,93.663,0,0,0-31.126-28.162,107.583,107.583,0,0,0-14.187-6.735c-.716-.239-1.432-.468-2.156-.688a90.589,90.589,0,0,0-53.039-.083c.395.789.808,1.551,1.239,2.294,13.764-4.469,31.723-3.615,49.231,2.211q3.588,1.193,7.148,2.679" transform="translate(721.874 96.004)" fill="#9fe" fill-rule="evenodd"/>
    <path id="Path_15" data-name="Path 15" d="M129.49,92.262c3.671-29.263,22.023-50.69,44.147-63.445.083-1.56.229-3.138.431-4.717-15.4,8.763-29,21.7-37.164,38.541a83.192,83.192,0,0,0-7.414,29.63" transform="translate(727.34 94.977)" fill="#9fe" fill-rule="evenodd"/>
    <path id="Path_16" data-name="Path 16" d="M189.389,75.058c-24.914,8.965-49.442,19.977-56.48,46.533a111.849,111.849,0,0,1-3.579-18.5,93.3,93.3,0,0,0,4.1,24.978c9.3-30.686,42.624-39.88,71.456-50.149A93.605,93.605,0,0,1,195.8,72.8,56.049,56.049,0,0,1,183.167,62q-2.257.8-4.414,1.652l.844,1.266a47.211,47.211,0,0,0,9.782,10.158" transform="translate(727.353 91.855)" fill="#00fddc" fill-rule="evenodd"/>
    <path id="Path_17" data-name="Path 17" d="M180.381,56.962c1.184-.587,2.4-1.165,3.671-1.725-5.212-8.029-7-16.894-6.552-26l-.743.44c-1.34,9.442-.56,18.756,3.671,27.281" transform="translate(723.496 94.554)" fill="#00fddc" fill-rule="evenodd"/>
    <path id="Path_18" data-name="Path 18" d="M305.437,94.363H300.39a84.266,84.266,0,1,1-24.675-59.582A84.265,84.265,0,0,1,300.39,94.363h10.094a94.333,94.333,0,1,0-27.63,66.721,94.328,94.328,0,0,0,27.63-66.721Z" transform="translate(727.972 96.959)" fill="#575757"/>
    <path id="Path_19" data-name="Path 19" d="M216.933,163.648a23.528,23.528,0,0,1,4.763-4.928,26.419,26.419,0,0,1,19.206-5.01,36.008,36.008,0,0,1,19.8,8.91,48.368,48.368,0,0,1,9.975,12.149l.11.184h0c1.7,2.881,4.175,6.423,7.167,8.011a7.213,7.213,0,0,0,4.588.578c7.011-1.395,12.617-9.855,12.3-18.013l1.3,1.45a24.776,24.776,0,0,1-3.505,36.136c-9.6,7.414-24.17,9.075-35.9,8.029-12.342-1.1-26.4-5.506-35.384-14.37a32.921,32.921,0,0,1-3.046-3.359c-.486-.624-.918-1.276-1.376-1.936-.44.661-.918,1.312-1.386,1.936a31.876,31.876,0,0,1-3.01,3.386c-8.984,8.828-23.042,13.269-35.384,14.37-11.727,1.046-26.3-.615-35.889-8.029a24.776,24.776,0,0,1-3.515-36.136l1.3-1.45c-.679,8.984,8.112,21.445,16.857,17.435,2.982-1.588,5.506-5.13,7.158-8.011h0l.11-.184a48.571,48.571,0,0,1,9.975-12.149,36.045,36.045,0,0,1,19.8-8.91,26.419,26.419,0,0,1,19.206,5.01,23.859,23.859,0,0,1,4.772,4.928" transform="translate(727.173 84.32)" fill="#575757"/>
    <path id="Path_20" data-name="Path 20" d="M262.988,169.944a27.327,27.327,0,0,0-15.022-6.809,17.655,17.655,0,0,0-12.847,3.221,14.627,14.627,0,0,0-3.827,4.423q-.248.459-.468.918c24.308-3.056,33.127,22.023,46.634,24.437-18.564.229-27.254-24.042-47.965-19.793a17.224,17.224,0,0,0,3.836,12.351,24.777,24.777,0,0,0,2.211,2.487c8.883,8.727,23.858,12.049,36.3,12.14h0c8.213-.073,17.288-1.734,23.436-6.488a17.847,17.847,0,0,0,1.835-1.652,17.628,17.628,0,0,0,4.331-7.066l.211-.707-.211.239a14.1,14.1,0,0,1-2.468,2.147c-5.387,3.671-11.213,4.735-17.086,1.633-8.213-4.35-11.727-15.269-18.912-21.5" transform="translate(719.108 83.539)" fill="#00fddc" fill-rule="evenodd"/>
    <path id="Path_21" data-name="Path 21" d="M171.57,179.881a39.8,39.8,0,0,1,8.121-9.938,27.272,27.272,0,0,1,15.012-6.809,17.646,17.646,0,0,1,12.847,3.221,14.627,14.627,0,0,1,3.827,4.423c.174.3.33.606.477.918-24.317-3.056-33.136,22.023-46.634,24.437,18.555.229,27.244-24.042,47.955-19.793a17.215,17.215,0,0,1-3.79,12.351,24.828,24.828,0,0,1-2.221,2.487c-8.883,8.727-23.858,12.048-36.3,12.14h0c-8.213-.073-17.288-1.734-23.436-6.488a18.821,18.821,0,0,1-1.835-1.652,17.728,17.728,0,0,1-4.331-7.066l-.211-.707.22.239a14.049,14.049,0,0,0,2.459,2.147c5.387,3.671,11.223,4.735,17.086,1.633,4.643-2.459,8.194-7.093,10.8-11.562" transform="translate(726.388 83.539)" fill="#00fddc" fill-rule="evenodd"/>
    <path id="Path_22" data-name="Path 22" d="M177.584,199.24c-2.239.22-4.451.33-6.589.349h-2.01a47.075,47.075,0,0,1-14.489-2.707,17.435,17.435,0,0,1-10.681-3.441L142.65,192.4a17.893,17.893,0,0,0,3.028,4.028c5.882,5.983,16.7,8.176,25.317,8.139.762,0,1.523,0,2.3-.046a74.7,74.7,0,0,0,8.185-.78q1.376-.206,2.753-.468c8.708-1.67,17.224-5.075,23.1-10.846,3.973-3.9,6.671-9.176,6.038-14.866l-.257-.046a20.188,20.188,0,0,1-5.781,9.956c-6.726,6.607-16.912,10.094-26.887,11.47-.918.128-1.89.239-2.826.33" transform="translate(726.256 82.34)" fill="#00fddc" fill-rule="evenodd"/>
    <path id="Path_23" data-name="Path 23" d="M235.543,192.388c5.873,5.772,14.4,9.176,23.1,10.846q1.376.262,2.753.468a74.654,74.654,0,0,0,8.194.78c.771,0,1.532.046,2.294.046,8.626,0,19.435-2.156,25.317-8.139a17.628,17.628,0,0,0,3.028-4.028l-1.165,1.037a17.435,17.435,0,0,1-10.681,3.441,47.019,47.019,0,0,1-14.48,2.707h-2.019c-2.138,0-4.34-.128-6.579-.349q-1.422-.138-2.835-.33C252.5,197.509,242.278,194,235.58,187.4a20.188,20.188,0,0,1-5.781-9.956l-.257.046c-.633,5.7,2.065,10.966,6.038,14.866" transform="translate(719.106 82.347)" fill="#00fddc" fill-rule="evenodd"/>
    <path id="Path_24" data-name="Path 24" d="M262.785,192.25c-10.094-6.745-18.683-17.6-33.035-14.811.1.459.22.918.358,1.367,13.682-2.459,22.087,7.57,31.75,14.278,4.441,3.083,9.91,5.1,15.6,4.194a21.592,21.592,0,0,1-8.929-1.835c-.743-.312-1.477-.67-2.2-1.046a39.691,39.691,0,0,1-3.579-2.147" transform="translate(719.082 82.384)" fill="#00fddc" fill-rule="evenodd"/>
    <path id="Path_25" data-name="Path 25" d="M211.632,172.053c-15.1-.78-23.978,9.562-32.117,17.141-3.478,3.524-8.2,6.956-12.085,7.515,4.093-1.422,7.717-5.35,11.076-8.5,9.47-8.571,19.5-20,33.769-17.875l.918.413c.128.2.257.4.367.615s.33.606.477.918c-.826-.11-1.633-.174-2.423-.211Z" transform="translate(724.215 82.953)" fill="#00fddc" fill-rule="evenodd"/>
    <path id="Path_26" data-name="Path 26" d="M182.123,192.25c10.094-6.745,18.692-17.6,33.035-14.811-.1.459-.22.918-.358,1.367-13.673-2.459-22.087,7.57-31.75,14.278-4.441,3.083-9.9,5.1-15.6,4.194a21.573,21.573,0,0,0,8.919-1.835c.752-.312,1.487-.67,2.211-1.046a39.564,39.564,0,0,0,3.57-2.147" transform="translate(724.213 82.384)" fill="#00fddc" fill-rule="evenodd"/>
    <path id="Path_27" data-name="Path 27" d="M194.7,165.533c11.645-1.3,16.949,5.7,17.178,6.157-3.12-6.561-10.094-9.351-17.178-8.552-10.2,1.138-18.123,8.158-23.133,16.747a47.839,47.839,0,0,1-2.964,4.478c-.477.633-.973,1.257-1.5,1.835a24.079,24.079,0,0,1-4.992,4.441c-.44.275-.918.541-1.349.789-5.864,3.1-11.7,2.046-17.086-1.633L141,187.409a19,19,0,0,0,1.514,3.744l1.165,1.037c5.387,3.671,11.223,4.735,17.086,1.633a18.281,18.281,0,0,0,2.643-1.707,27.208,27.208,0,0,0,4.717-4.753c.5-.633.973-1.285,1.432-1.936.551-.808,1.083-1.624,1.578-2.45h0l.422-.716c5.01-8.6,12.929-15.6,23.134-16.756" transform="translate(726.392 83.536)" fill="#00fddc" fill-rule="evenodd"/>
    <path id="Path_28" data-name="Path 28" d="M233.385,172.053c15.1-.78,23.969,9.562,32.117,17.141,3.478,3.524,8.2,6.956,12.094,7.515-4.1-1.422-7.726-5.35-11.076-8.5-9.47-8.571-19.509-20-33.778-17.875l-.918.413c-.128.2-.248.4-.367.615s-.321.606-.468.918c.826-.11,1.624-.174,2.423-.211Z" transform="translate(718.979 82.953)" fill="#00fddc" fill-rule="evenodd"/>
    <path id="Path_29" data-name="Path 29" d="M248.132,165.533c-11.626-1.3-16.949,5.726-17.132,6.157,3.111-6.561,10.094-9.351,17.169-8.552,10.2,1.138,18.123,8.158,23.143,16.747a45.989,45.989,0,0,0,2.955,4.478c.477.633.982,1.257,1.5,1.835a24.317,24.317,0,0,0,4.992,4.441c.44.275.918.541,1.349.789,5.873,3.1,11.7,2.046,17.086-1.633l2.679-2.386a19,19,0,0,1-1.514,3.744l-1.165,1.037c-5.387,3.671-11.213,4.735-17.086,1.633a18.277,18.277,0,0,1-2.643-1.707,26.851,26.851,0,0,1-4.707-4.753c-.5-.633-.982-1.285-1.431-1.936-.56-.808-1.083-1.624-1.578-2.45h0l-.413-.716c-5.019-8.6-12.939-15.6-23.143-16.756" transform="translate(718.979 83.536)" fill="#00fddc" fill-rule="evenodd"/>
    <path id="Path_30" data-name="Path 30" d="M233.143,124.627a9.4,9.4,0,1,1-9.387-9.387,9.4,9.4,0,0,1,9.387,9.387Z" transform="translate(720.35 87.47)" fill="#1d1d1b"/>
    <path id="Path_31" data-name="Path 31" d="M226.105,125.366l26.611-22.023A2.753,2.753,0,0,0,249.2,99.1l-26.611,22.023a2.753,2.753,0,0,0,3.515,4.239" transform="translate(719.753 88.852)" fill="#1d1d1b"/>
    <path id="Path_32" data-name="Path 32" d="M221.6,99.963v23.179a2.753,2.753,0,0,0,5.506,0V99.963a2.753,2.753,0,0,0-5.506,0" transform="translate(719.753 88.955)" fill="#1d1d1b"/>
  </g>
</svg>
