<svg xmlns="http://www.w3.org/2000/svg" width="938.337" height="198.776" viewBox="0 0 938.337 198.776">
  <g id="Group_1494" data-name="Group 1494" transform="translate(-248.782 -2108)">
    <g id="Group_1483" data-name="Group 1483" transform="translate(-1719 2620)">
      <path id="Path_9" data-name="Path 9" d="M137.761,135.4c8.58-28.447,22.078-34.87,52.461-46.919,20.619-7.515,50.094-15.068,62.977-34.1,6.717-9.929,8.075-21.17,6.378-32.585A89.671,89.671,0,0,0,216.75,11c-16.8,0-35.421,2.083-50,11.379a88.873,88.873,0,0,0-14.269,11.929C135.659,50.944,129.3,74.454,129.3,96.11c0,10.929.266,23,4.184,33.576.817,2.184,3.3,3.588,4.276,5.735" transform="translate(1845.355 -512.944)" fill="#575757" fill-rule="evenodd"/>
      <path id="Path_10" data-name="Path 10" d="M132.863,125.573C108.316,38.012,200.41-3.749,244.465,13.062c-16.059,37.917-78.054,30.328-88.726,63.2,16.839-28.153,75.5-18.454,94.112-57.288,14.765,68.189-100.3,43.523-116.989,106.6" transform="translate(1845.399 -512.812)" fill="#00fddc" fill-rule="evenodd"/>
      <path id="Path_11" data-name="Path 11" d="M300.061,135.7c-6.423-23.418-17.6-35.228-52.507-47.212-20.619-7.515-50.094-15.086-62.977-34.1-6.754-9.984-8.094-21.289-6.359-32.769A89.854,89.854,0,0,1,220.723,11c22.721,0,47.359,6.2,64.583,23.225,16.82,16.637,22.858,40.229,22.858,61.885,1.45,14.058,6.01,33.035-8.1,39.6" transform="translate(1841.383 -512.944)" fill="#575757" fill-rule="evenodd"/>
      <path id="Path_12" data-name="Path 12" d="M305.672,125.573c24.556-87.551-67.538-129.313-111.593-112.5,16.059,37.917,78.5,10.58,88.377,52.571C274.95,33.7,207.3,57.815,188.693,18.981c-14.774,68.18,100.3,43.514,116.98,106.592" transform="translate(1840.571 -512.813)" fill="#00fddc" fill-rule="evenodd"/>
      <path id="Path_13" data-name="Path 13" d="M233.225,65.089c-9.855-3.515-19.16-7.185-26.786-11.929a55.407,55.407,0,0,1-6.066-4.285c-6.891-5.634-11.562-12.7-12.718-22.234-1.11,10.415,1.193,18.408,5.845,24.776a35.787,35.787,0,0,0,3.882,4.487c6.148,6.066,14.682,10.553,24.3,14.489,3.863,1.578,7.892,3.074,12.012,4.542C262.378,85.148,295.5,94.3,305,124.579a93.12,93.12,0,0,0,3.891-22.867,111.366,111.366,0,0,1-3.221,15.453c-7.506-28.373-34.916-38.99-61.481-48.295-3.671-1.294-7.341-2.56-11.012-3.854" transform="translate(1840.572 -514.232)" fill="#00fddc" fill-rule="evenodd"/>
      <path id="Path_14" data-name="Path 14" d="M253.459,22.753c.918.376,1.835.78,2.753,1.184a101.026,101.026,0,0,1,9.47,4.836c21.262,12.25,39.018,32.5,43.615,60a82.476,82.476,0,0,0-12.939-37.54,93.663,93.663,0,0,0-31.126-28.162,107.583,107.583,0,0,0-14.187-6.735c-.716-.239-1.432-.468-2.156-.688a90.589,90.589,0,0,0-53.039-.083c.395.789.808,1.551,1.239,2.294,13.764-4.469,31.723-3.615,49.231,2.211q3.588,1.193,7.148,2.679" transform="translate(1839.874 -512.996)" fill="#9fe" fill-rule="evenodd"/>
      <path id="Path_15" data-name="Path 15" d="M129.49,92.262c3.671-29.263,22.023-50.69,44.147-63.445.083-1.56.229-3.138.431-4.717-15.4,8.763-29,21.7-37.164,38.541a83.192,83.192,0,0,0-7.414,29.63" transform="translate(1845.34 -514.023)" fill="#9fe" fill-rule="evenodd"/>
      <path id="Path_16" data-name="Path 16" d="M189.389,75.058c-24.914,8.965-49.442,19.977-56.48,46.533a111.849,111.849,0,0,1-3.579-18.5,93.3,93.3,0,0,0,4.1,24.978c9.3-30.686,42.624-39.88,71.456-50.149A93.605,93.605,0,0,1,195.8,72.8,56.049,56.049,0,0,1,183.167,62q-2.257.8-4.414,1.652l.844,1.266a47.211,47.211,0,0,0,9.782,10.158" transform="translate(1845.353 -517.145)" fill="#00fddc" fill-rule="evenodd"/>
      <path id="Path_17" data-name="Path 17" d="M180.381,56.962c1.184-.587,2.4-1.165,3.671-1.725-5.212-8.029-7-16.894-6.552-26l-.743.44c-1.34,9.442-.56,18.756,3.671,27.281" transform="translate(1841.496 -514.446)" fill="#00fddc" fill-rule="evenodd"/>
      <path id="Path_18" data-name="Path 18" d="M305.437,94.363H300.39a84.266,84.266,0,1,1-24.675-59.582A84.265,84.265,0,0,1,300.39,94.363h10.094a94.333,94.333,0,1,0-27.63,66.721,94.328,94.328,0,0,0,27.63-66.721Z" transform="translate(1845.972 -512.041)" fill="#575757"/>
      <path id="Path_19" data-name="Path 19" d="M216.933,163.648a23.528,23.528,0,0,1,4.763-4.928,26.419,26.419,0,0,1,19.206-5.01,36.008,36.008,0,0,1,19.8,8.91,48.368,48.368,0,0,1,9.975,12.149l.11.184h0c1.7,2.881,4.175,6.423,7.167,8.011a7.213,7.213,0,0,0,4.588.578c7.011-1.395,12.617-9.855,12.3-18.013l1.3,1.45a24.776,24.776,0,0,1-3.505,36.136c-9.6,7.414-24.17,9.075-35.9,8.029-12.342-1.1-26.4-5.506-35.384-14.37a32.921,32.921,0,0,1-3.046-3.359c-.486-.624-.918-1.276-1.376-1.936-.44.661-.918,1.312-1.386,1.936a31.876,31.876,0,0,1-3.01,3.386c-8.984,8.828-23.042,13.269-35.384,14.37-11.727,1.046-26.3-.615-35.889-8.029a24.776,24.776,0,0,1-3.515-36.136l1.3-1.45c-.679,8.984,8.112,21.445,16.857,17.435,2.982-1.588,5.506-5.13,7.158-8.011h0l.11-.184a48.571,48.571,0,0,1,9.975-12.149,36.045,36.045,0,0,1,19.8-8.91,26.419,26.419,0,0,1,19.206,5.01,23.859,23.859,0,0,1,4.772,4.928" transform="translate(1845.173 -524.68)" fill="#575757"/>
      <path id="Path_20" data-name="Path 20" d="M262.988,169.944a27.327,27.327,0,0,0-15.022-6.809,17.655,17.655,0,0,0-12.847,3.221,14.627,14.627,0,0,0-3.827,4.423q-.248.459-.468.918c24.308-3.056,33.127,22.023,46.634,24.437-18.564.229-27.254-24.042-47.965-19.793a17.224,17.224,0,0,0,3.836,12.351,24.777,24.777,0,0,0,2.211,2.487c8.883,8.727,23.858,12.049,36.3,12.14h0c8.213-.073,17.288-1.734,23.436-6.488a17.847,17.847,0,0,0,1.835-1.652,17.628,17.628,0,0,0,4.331-7.066l.211-.707-.211.239a14.1,14.1,0,0,1-2.468,2.147c-5.387,3.671-11.213,4.735-17.086,1.633-8.213-4.35-11.727-15.269-18.912-21.5" transform="translate(1837.108 -525.461)" fill="#00fddc" fill-rule="evenodd"/>
      <path id="Path_21" data-name="Path 21" d="M171.57,179.881a39.8,39.8,0,0,1,8.121-9.938,27.272,27.272,0,0,1,15.012-6.809,17.646,17.646,0,0,1,12.847,3.221,14.627,14.627,0,0,1,3.827,4.423c.174.3.33.606.477.918-24.317-3.056-33.136,22.023-46.634,24.437,18.555.229,27.244-24.042,47.955-19.793a17.215,17.215,0,0,1-3.79,12.351,24.828,24.828,0,0,1-2.221,2.487c-8.883,8.727-23.858,12.048-36.3,12.14h0c-8.213-.073-17.288-1.734-23.436-6.488a18.821,18.821,0,0,1-1.835-1.652,17.728,17.728,0,0,1-4.331-7.066l-.211-.707.22.239a14.049,14.049,0,0,0,2.459,2.147c5.387,3.671,11.223,4.735,17.086,1.633,4.643-2.459,8.194-7.093,10.8-11.562" transform="translate(1844.388 -525.461)" fill="#00fddc" fill-rule="evenodd"/>
      <path id="Path_22" data-name="Path 22" d="M177.584,199.24c-2.239.22-4.451.33-6.589.349h-2.01a47.075,47.075,0,0,1-14.489-2.707,17.435,17.435,0,0,1-10.681-3.441L142.65,192.4a17.893,17.893,0,0,0,3.028,4.028c5.882,5.983,16.7,8.176,25.317,8.139.762,0,1.523,0,2.3-.046a74.7,74.7,0,0,0,8.185-.78q1.376-.206,2.753-.468c8.708-1.67,17.224-5.075,23.1-10.846,3.973-3.9,6.671-9.176,6.038-14.866l-.257-.046a20.188,20.188,0,0,1-5.781,9.956c-6.726,6.607-16.912,10.094-26.887,11.47-.918.128-1.89.239-2.826.33" transform="translate(1844.256 -526.66)" fill="#00fddc" fill-rule="evenodd"/>
      <path id="Path_23" data-name="Path 23" d="M235.543,192.388c5.873,5.772,14.4,9.176,23.1,10.846q1.376.262,2.753.468a74.654,74.654,0,0,0,8.194.78c.771,0,1.532.046,2.294.046,8.626,0,19.435-2.156,25.317-8.139a17.628,17.628,0,0,0,3.028-4.028l-1.165,1.037a17.435,17.435,0,0,1-10.681,3.441,47.019,47.019,0,0,1-14.48,2.707h-2.019c-2.138,0-4.34-.128-6.579-.349q-1.422-.138-2.835-.33C252.5,197.509,242.278,194,235.58,187.4a20.188,20.188,0,0,1-5.781-9.956l-.257.046c-.633,5.7,2.065,10.966,6.038,14.866" transform="translate(1837.106 -526.653)" fill="#00fddc" fill-rule="evenodd"/>
      <path id="Path_24" data-name="Path 24" d="M262.785,192.25c-10.094-6.745-18.683-17.6-33.035-14.811.1.459.22.918.358,1.367,13.682-2.459,22.087,7.57,31.75,14.278,4.441,3.083,9.91,5.1,15.6,4.194a21.592,21.592,0,0,1-8.929-1.835c-.743-.312-1.477-.67-2.2-1.046a39.691,39.691,0,0,1-3.579-2.147" transform="translate(1837.082 -526.616)" fill="#00fddc" fill-rule="evenodd"/>
      <path id="Path_25" data-name="Path 25" d="M211.632,172.053c-15.1-.78-23.978,9.562-32.117,17.141-3.478,3.524-8.2,6.956-12.085,7.515,4.093-1.422,7.717-5.35,11.076-8.5,9.47-8.571,19.5-20,33.769-17.875l.918.413c.128.2.257.4.367.615s.33.606.477.918c-.826-.11-1.633-.174-2.423-.211Z" transform="translate(1842.215 -526.047)" fill="#00fddc" fill-rule="evenodd"/>
      <path id="Path_26" data-name="Path 26" d="M182.123,192.25c10.094-6.745,18.692-17.6,33.035-14.811-.1.459-.22.918-.358,1.367-13.673-2.459-22.087,7.57-31.75,14.278-4.441,3.083-9.9,5.1-15.6,4.194a21.573,21.573,0,0,0,8.919-1.835c.752-.312,1.487-.67,2.211-1.046a39.564,39.564,0,0,0,3.57-2.147" transform="translate(1842.213 -526.616)" fill="#00fddc" fill-rule="evenodd"/>
      <path id="Path_27" data-name="Path 27" d="M194.7,165.533c11.645-1.3,16.949,5.7,17.178,6.157-3.12-6.561-10.094-9.351-17.178-8.552-10.2,1.138-18.123,8.158-23.133,16.747a47.839,47.839,0,0,1-2.964,4.478c-.477.633-.973,1.257-1.5,1.835a24.079,24.079,0,0,1-4.992,4.441c-.44.275-.918.541-1.349.789-5.864,3.1-11.7,2.046-17.086-1.633L141,187.409a19,19,0,0,0,1.514,3.744l1.165,1.037c5.387,3.671,11.223,4.735,17.086,1.633a18.281,18.281,0,0,0,2.643-1.707,27.208,27.208,0,0,0,4.717-4.753c.5-.633.973-1.285,1.432-1.936.551-.808,1.083-1.624,1.578-2.45h0l.422-.716c5.01-8.6,12.929-15.6,23.134-16.756" transform="translate(1844.392 -525.464)" fill="#00fddc" fill-rule="evenodd"/>
      <path id="Path_28" data-name="Path 28" d="M233.385,172.053c15.1-.78,23.969,9.562,32.117,17.141,3.478,3.524,8.2,6.956,12.094,7.515-4.1-1.422-7.726-5.35-11.076-8.5-9.47-8.571-19.509-20-33.778-17.875l-.918.413c-.128.2-.248.4-.367.615s-.321.606-.468.918c.826-.11,1.624-.174,2.423-.211Z" transform="translate(1836.979 -526.047)" fill="#00fddc" fill-rule="evenodd"/>
      <path id="Path_29" data-name="Path 29" d="M248.132,165.533c-11.626-1.3-16.949,5.726-17.132,6.157,3.111-6.561,10.094-9.351,17.169-8.552,10.2,1.138,18.123,8.158,23.143,16.747a45.989,45.989,0,0,0,2.955,4.478c.477.633.982,1.257,1.5,1.835a24.317,24.317,0,0,0,4.992,4.441c.44.275.918.541,1.349.789,5.873,3.1,11.7,2.046,17.086-1.633l2.679-2.386a19,19,0,0,1-1.514,3.744l-1.165,1.037c-5.387,3.671-11.213,4.735-17.086,1.633a18.277,18.277,0,0,1-2.643-1.707,26.851,26.851,0,0,1-4.707-4.753c-.5-.633-.982-1.285-1.431-1.936-.56-.808-1.083-1.624-1.578-2.45h0l-.413-.716c-5.019-8.6-12.939-15.6-23.143-16.756" transform="translate(1836.979 -525.464)" fill="#00fddc" fill-rule="evenodd"/>
      <path id="Path_30" data-name="Path 30" d="M233.143,124.627a9.4,9.4,0,1,1-9.387-9.387,9.4,9.4,0,0,1,9.387,9.387Z" transform="translate(1838.35 -521.53)" fill="#575757"/>
      <path id="Path_31" data-name="Path 31" d="M226.105,125.366l26.611-22.023A2.753,2.753,0,0,0,249.2,99.1l-26.611,22.023a2.753,2.753,0,0,0,3.515,4.239" transform="translate(1837.753 -520.148)" fill="#575757"/>
      <path id="Path_32" data-name="Path 32" d="M221.6,99.963v23.179a2.753,2.753,0,0,0,5.506,0V99.963a2.753,2.753,0,0,0-5.506,0" transform="translate(1837.753 -520.045)" fill="#575757"/>
    </g>
    <g id="Group_1493" data-name="Group 1493" transform="translate(1 528.763)">
      <path id="Path_1" data-name="Path 1" d="M9.776,252.789a9.932,9.932,0,0,1-6.969-2.563A8.635,8.635,0,0,1,0,243.433a8.443,8.443,0,0,1,2.8-6.648A10.173,10.173,0,0,1,9.776,234.3H80.9a10.012,10.012,0,0,1,6.969,2.563,8.683,8.683,0,0,1,2.8,6.728,8.394,8.394,0,0,1-2.8,6.648,10.092,10.092,0,0,1-6.969,2.483Zm35.4,93.717a10.109,10.109,0,0,1-7.369-2.8,9.292,9.292,0,0,1-2.884-6.969V243.818H55.753v92.916A9.2,9.2,0,0,1,52.87,343.7a10.605,10.605,0,0,1-7.69,2.8Z" transform="translate(475.006 1388.949)" fill="#00fddc"/>
      <path id="Path_2" data-name="Path 2" d="M75.032,251.517c-3.637,0-6.2-.577-7.69-1.762s-2.243-3.2-2.243-6.248v-3.044c0-3.092.817-5.207,2.483-6.328a13.7,13.7,0,0,1,7.609-1.682c3.733,0,6.408.593,7.85,1.762s2.243,3.2,2.243,6.248v3.044c0,3.108-.8,5.206-2.4,6.328A14.066,14.066,0,0,1,75.032,251.517ZM84.8,337.864a9.612,9.612,0,0,1-2.723,6.969,9.868,9.868,0,0,1-13.777,0,9.612,9.612,0,0,1-2.723-6.969V271.7a9.612,9.612,0,0,1,2.723-6.969,9.868,9.868,0,0,1,13.777,0A9.612,9.612,0,0,1,84.8,271.7Z" transform="translate(514.2 1387.818)" fill="#00fddc"/>
      <path id="Path_3" data-name="Path 3" d="M134.657,249.842q12.816,0,18.9,6.168a30.518,30.518,0,0,1,8.01,15.94l-2.723-1.442,1.282-2.563a36.846,36.846,0,0,1,5.927-7.93,36.331,36.331,0,0,1,9.612-7.209,27.137,27.137,0,0,1,12.816-2.964q11.534,0,17.542,4.966a25.312,25.312,0,0,1,8.25,13.217,70.165,70.165,0,0,1,2.243,18.343v41.011a9.612,9.612,0,0,1-2.723,6.969,9.868,9.868,0,0,1-13.777,0,9.612,9.612,0,0,1-2.723-6.969V286.367a33.145,33.145,0,0,0-1.282-9.532,13.185,13.185,0,0,0-4.646-6.808,15.667,15.667,0,0,0-9.612-2.563,20.152,20.152,0,0,0-10.413,2.563,16.66,16.66,0,0,0-6.408,6.808,20.713,20.713,0,0,0-2.163,9.532v41.011a9.612,9.612,0,0,1-2.723,6.969,9.868,9.868,0,0,1-13.777,0,9.612,9.612,0,0,1-2.723-6.969V286.367a33.145,33.145,0,0,0-1.282-9.532,13.184,13.184,0,0,0-4.646-6.808,15.667,15.667,0,0,0-9.612-2.563,20.153,20.153,0,0,0-10.413,2.563,16.66,16.66,0,0,0-6.408,6.808,20.714,20.714,0,0,0-2.163,9.532v41.011a9.612,9.612,0,0,1-2.723,6.969,9.868,9.868,0,0,1-13.777,0,9.612,9.612,0,0,1-2.723-6.969V261.216a9.612,9.612,0,0,1,2.723-6.969,9.868,9.868,0,0,1,13.777,0,9.612,9.612,0,0,1,2.723,6.969V268.1l-2.4-.481a35.759,35.759,0,0,1,4-5.847,34.349,34.349,0,0,1,6.248-5.847,33.372,33.372,0,0,1,8.17-4.405A27.57,27.57,0,0,1,134.657,249.842Z" transform="translate(529.068 1398.305)" fill="#00fddc"/>
      <path id="Path_4" data-name="Path 4" d="M223.283,338.745a46.954,46.954,0,0,1-23.629-5.687A39.1,39.1,0,0,1,184.275,317.6a44.983,44.983,0,0,1-5.367-22.107,48.493,48.493,0,0,1,5.847-24.575,41.314,41.314,0,0,1,15.3-15.619,39.585,39.585,0,0,1,20.025-5.447,36.494,36.494,0,0,1,15.459,3.364,42.549,42.549,0,0,1,12.9,9.211,45.112,45.112,0,0,1,8.891,13.537,41.347,41.347,0,0,1,3.284,16.34,8.25,8.25,0,0,1-3.044,6.248,10.189,10.189,0,0,1-6.728,2.4h-61.2l-4.806-16.02h58.793l-3.524,3.2v-4.405a14.77,14.77,0,0,0-3.2-8.33,21.658,21.658,0,0,0-7.369-5.847,21.05,21.05,0,0,0-9.372-2.163,30.436,30.436,0,0,0-8.971,1.282A17.269,17.269,0,0,0,203.979,273a20.938,20.938,0,0,0-4.806,8.17,40.29,40.29,0,0,0-1.762,12.976,28,28,0,0,0,3.6,14.658,24.639,24.639,0,0,0,21.307,12.319,37.328,37.328,0,0,0,9.452-.961,21.21,21.21,0,0,0,5.687-2.323c1.442-.9,2.739-1.682,3.925-2.323a12.206,12.206,0,0,1,5.447-1.442,8.01,8.01,0,0,1,8.17,8.01c0,2.884-1.506,5.511-4.486,7.85a37.229,37.229,0,0,1-11.695,6.168A46.653,46.653,0,0,1,223.283,338.745Z" transform="translate(582.698 1398.312)" fill="#00fddc"/>
      <path id="Path_5" data-name="Path 5" d="M295.881,348.679a60.589,60.589,0,0,1-22.908-4.245A53.907,53.907,0,0,1,242.7,314.076a64.8,64.8,0,0,1,0-46.137A53.907,53.907,0,0,1,272.973,237.6a60.877,60.877,0,0,1,22.989-4.245,66.148,66.148,0,0,1,16.981,2.163A47.659,47.659,0,0,1,327.521,242a2.771,2.771,0,0,1,1.121,1.2,3.813,3.813,0,0,1,.32,1.522,2.771,2.771,0,0,1-1.121,2.4,3.476,3.476,0,0,1-1.922.8,2.468,2.468,0,0,1-1.121-.24,8.143,8.143,0,0,0-.961-.4,61.982,61.982,0,0,0-12.976-5.447,52.864,52.864,0,0,0-14.9-2.083,51.616,51.616,0,0,0-26.353,6.648,47.708,47.708,0,0,0-17.942,18.183,57.255,57.255,0,0,0,0,52.866,46.827,46.827,0,0,0,17.942,18.183,51.89,51.89,0,0,0,26.353,6.568,51.266,51.266,0,0,0,15.78-2.483,53.1,53.1,0,0,0,13.7-6.488l-.641,2.884v-40.05l2.243,2.083H295.881a3.284,3.284,0,0,1-3.2-3.2,3.012,3.012,0,0,1,.961-2.323,3.2,3.2,0,0,1,2.243-.881h32.04a3.012,3.012,0,0,1,2.323.961,3.2,3.2,0,0,1,.881,2.243v40.21a4.005,4.005,0,0,1-.32,1.442,3.54,3.54,0,0,1-1.121,1.442,63.054,63.054,0,0,1-15.78,7.69,57.192,57.192,0,0,1-18.022,2.948Z" transform="translate(618.555 1388.378)" fill="#00fddc"/>
      <path id="Path_6" data-name="Path 6" d="M371.5,254.441a3.012,3.012,0,0,1,2.323.961,3.2,3.2,0,0,1,.881,2.243v46.618q0,15.539-8.731,23.309t-23.149,7.77q-14.274,0-22.989-7.77T311.1,304.263V257.645a3.284,3.284,0,0,1,3.2-3.2,3.012,3.012,0,0,1,2.323.961,3.2,3.2,0,0,1,.881,2.243v46.618q0,12.175,6.808,18.583t18.5,6.408q11.839,0,18.663-6.408t6.808-18.583V257.645a3.2,3.2,0,0,1,.881-2.243,2.98,2.98,0,0,1,2.323-.961Z" transform="translate(662.29 1401.074)" fill="#00fddc"/>
      <path id="Path_7" data-name="Path 7" d="M370.594,335.369a3.012,3.012,0,0,1-2.323-.961,3.2,3.2,0,0,1-.881-2.243V258.633a3.284,3.284,0,0,1,3.2-3.2,2.98,2.98,0,0,1,2.323.961,3.2,3.2,0,0,1,.881,2.243v27.074l-2.723,4.165a39.425,39.425,0,0,1,2.1-12.72,42.373,42.373,0,0,1,6.328-11.935,33.645,33.645,0,0,1,10.173-8.971,27.442,27.442,0,0,1,13.857-3.444,20.263,20.263,0,0,1,4.806.641,2.948,2.948,0,0,1,2.563,3.044,3.573,3.573,0,0,1-.8,2.4,2.563,2.563,0,0,1-2.082.961,5.206,5.206,0,0,1-2.323-.721,8.522,8.522,0,0,0-3.925-.721,19.225,19.225,0,0,0-10.092,3.044,35.935,35.935,0,0,0-9.051,8.09,43.258,43.258,0,0,0-6.488,10.974,30.646,30.646,0,0,0-2.4,11.534V332.1a3.284,3.284,0,0,1-3.2,3.2Z" transform="translate(696.176 1400.086)" fill="#00fddc"/>
      <path id="Path_8" data-name="Path 8" d="M464.579,254.441a2.98,2.98,0,0,1,2.323.961,3.2,3.2,0,0,1,.881,2.243v46.618q0,15.539-8.731,23.309t-23.133,7.77q-14.242,0-22.989-7.77T404.2,304.263V257.645a3.284,3.284,0,0,1,3.2-3.2,2.98,2.98,0,0,1,2.323.961,3.2,3.2,0,0,1,.881,2.243v46.618q0,12.175,6.808,18.583t18.5,6.408q11.871,0,18.663-6.408t6.808-18.583V257.645a3.2,3.2,0,0,1,.881-2.243A3.012,3.012,0,0,1,464.579,254.441Z" transform="translate(718.335 1401.074)" fill="#00fddc"/>
    </g>
  </g>
</svg>
