<svg xmlns="http://www.w3.org/2000/svg" width="407.333" height="66.924" viewBox="0 0 407.333 66.924">
  <g id="Group_24" data-name="Group 24" transform="translate(-1856 298.763)">
    <path id="Path_1" data-name="Path 1" d="M5.6,244.889a5.689,5.689,0,0,1-3.992-1.468A4.946,4.946,0,0,1,0,239.53a4.836,4.836,0,0,1,1.606-3.808A5.827,5.827,0,0,1,5.6,234.3H46.34a5.735,5.735,0,0,1,3.992,1.468,4.974,4.974,0,0,1,1.606,3.854,4.808,4.808,0,0,1-1.606,3.808,5.781,5.781,0,0,1-3.992,1.422Zm20.28,53.681a5.79,5.79,0,0,1-4.221-1.606A5.322,5.322,0,0,1,20,292.973V239.75H31.933v53.223a5.267,5.267,0,0,1-1.652,3.992,6.075,6.075,0,0,1-4.4,1.606Z" transform="translate(1856.006 -531.336)" fill="#00fddc"/>
    <path id="Path_2" data-name="Path 2" d="M70.789,243.358c-2.083,0-3.551-.33-4.4-1.009S65.1,240.513,65.1,238.77v-1.743c0-1.771.468-2.982,1.422-3.625a7.846,7.846,0,0,1,4.359-.964c2.138,0,3.671.34,4.5,1.009a4.362,4.362,0,0,1,1.285,3.579v1.743c0,1.78-.459,2.982-1.376,3.625a8.057,8.057,0,0,1-4.5.964Zm5.6,49.46a5.506,5.506,0,0,1-1.56,3.992,5.653,5.653,0,0,1-7.892,0,5.506,5.506,0,0,1-1.56-3.992v-37.9a5.506,5.506,0,0,1,1.56-3.992,5.653,5.653,0,0,1,7.892,0,5.506,5.506,0,0,1,1.56,3.992Z" transform="translate(1850.644 -531.182)" fill="#00fddc"/>
    <path id="Path_3" data-name="Path 3" d="M115.494,249.84q7.341,0,10.828,3.533a17.481,17.481,0,0,1,4.588,9.13l-1.56-.826.734-1.468a21.106,21.106,0,0,1,3.4-4.542,20.811,20.811,0,0,1,5.506-4.129,15.545,15.545,0,0,1,7.341-1.7q6.607,0,10.048,2.845a14.5,14.5,0,0,1,4.726,7.571,40.191,40.191,0,0,1,1.285,10.507v23.491a5.506,5.506,0,0,1-1.56,3.992,5.653,5.653,0,0,1-7.892,0,5.506,5.506,0,0,1-1.56-3.992V270.762a18.986,18.986,0,0,0-.734-5.46,7.552,7.552,0,0,0-2.661-3.9,8.974,8.974,0,0,0-5.506-1.468,11.544,11.544,0,0,0-5.965,1.468,9.543,9.543,0,0,0-3.671,3.9,11.865,11.865,0,0,0-1.239,5.46v23.491a5.506,5.506,0,0,1-1.56,3.992,5.653,5.653,0,0,1-7.892,0,5.506,5.506,0,0,1-1.56-3.992V270.762a18.986,18.986,0,0,0-.734-5.46,7.552,7.552,0,0,0-2.661-3.9,8.974,8.974,0,0,0-5.506-1.468,11.544,11.544,0,0,0-5.965,1.468,9.543,9.543,0,0,0-3.671,3.9,11.865,11.865,0,0,0-1.239,5.46v23.491a5.506,5.506,0,0,1-1.56,3.992,5.653,5.653,0,0,1-7.892,0,5.506,5.506,0,0,1-1.56-3.992v-37.9a5.506,5.506,0,0,1,1.56-3.992,5.653,5.653,0,0,1,7.892,0,5.506,5.506,0,0,1,1.56,3.992V260.3l-1.376-.275a20.483,20.483,0,0,1,2.294-3.349,19.674,19.674,0,0,1,3.579-3.349,19.115,19.115,0,0,1,4.68-2.523A15.792,15.792,0,0,1,115.494,249.84Z" transform="translate(1848.609 -532.616)" fill="#00fddc"/>
    <path id="Path_4" data-name="Path 4" d="M204.317,300.769a26.9,26.9,0,0,1-13.535-3.258,22.4,22.4,0,0,1-8.809-8.855,25.767,25.767,0,0,1-3.074-12.663,27.777,27.777,0,0,1,3.349-14.077,23.665,23.665,0,0,1,8.763-8.947,22.675,22.675,0,0,1,11.47-3.12,20.9,20.9,0,0,1,8.855,1.927,24.372,24.372,0,0,1,7.387,5.276,25.84,25.84,0,0,1,5.093,7.754,23.684,23.684,0,0,1,1.881,9.36,4.726,4.726,0,0,1-1.743,3.579,5.836,5.836,0,0,1-3.854,1.376H185.047l-2.753-9.176h33.677l-2.019,1.835v-2.523a8.46,8.46,0,0,0-1.835-4.772,12.406,12.406,0,0,0-4.221-3.349,12.058,12.058,0,0,0-5.368-1.239,17.434,17.434,0,0,0-5.139.734,9.892,9.892,0,0,0-4.129,2.478,11.993,11.993,0,0,0-2.753,4.68,23.078,23.078,0,0,0-1.009,7.433,16.04,16.04,0,0,0,2.065,8.4,14.113,14.113,0,0,0,12.2,7.057,21.382,21.382,0,0,0,5.414-.551,12.149,12.149,0,0,0,3.258-1.331c.826-.514,1.569-.964,2.248-1.331a6.992,6.992,0,0,1,3.12-.826,4.588,4.588,0,0,1,4.68,4.588,5.735,5.735,0,0,1-2.569,4.5,21.325,21.325,0,0,1-6.7,3.533A26.722,26.722,0,0,1,204.317,300.769Z" transform="translate(1841.271 -532.617)" fill="#00fddc"/>
    <path id="Path_5" data-name="Path 5" d="M271.347,299.41a34.706,34.706,0,0,1-13.122-2.432,30.878,30.878,0,0,1-17.343-17.389,37.118,37.118,0,0,1,0-26.428,30.878,30.878,0,0,1,17.343-17.38,34.87,34.87,0,0,1,13.168-2.432,37.889,37.889,0,0,1,9.727,1.239,27.3,27.3,0,0,1,8.35,3.716,1.587,1.587,0,0,1,.642.688,2.184,2.184,0,0,1,.184.872,1.587,1.587,0,0,1-.642,1.376,1.991,1.991,0,0,1-1.1.459,1.414,1.414,0,0,1-.642-.138,4.671,4.671,0,0,0-.551-.229,35.5,35.5,0,0,0-7.433-3.12,30.281,30.281,0,0,0-8.534-1.193,29.566,29.566,0,0,0-15.1,3.808,27.327,27.327,0,0,0-10.277,10.415,32.8,32.8,0,0,0,0,30.282A26.823,26.823,0,0,0,256.3,291.941a29.723,29.723,0,0,0,15.1,3.762,29.365,29.365,0,0,0,9.039-1.422,30.418,30.418,0,0,0,7.846-3.716l-.367,1.652V269.275l1.285,1.193H271.347a1.881,1.881,0,0,1-1.835-1.835,1.725,1.725,0,0,1,.551-1.331,1.835,1.835,0,0,1,1.285-.5H289.7a1.725,1.725,0,0,1,1.331.551,1.835,1.835,0,0,1,.5,1.285v23.033a2.294,2.294,0,0,1-.184.826,2.028,2.028,0,0,1-.642.826,36.117,36.117,0,0,1-9.039,4.4,32.759,32.759,0,0,1-10.323,1.688Z" transform="translate(1836.365 -531.258)" fill="#00fddc"/>
    <path id="Path_6" data-name="Path 6" d="M345.695,254.44a1.725,1.725,0,0,1,1.331.551,1.835,1.835,0,0,1,.5,1.285v26.7q0,8.9-5,13.352t-13.26,4.451q-8.176,0-13.168-4.451t-5-13.352v-26.7a1.881,1.881,0,0,1,1.835-1.835,1.725,1.725,0,0,1,1.331.551,1.835,1.835,0,0,1,.5,1.285v26.7q0,6.974,3.9,10.645t10.6,3.671q6.781,0,10.69-3.671t3.9-10.645v-26.7a1.835,1.835,0,0,1,.5-1.285,1.707,1.707,0,0,1,1.331-.551Z" transform="translate(1830.381 -532.995)" fill="#00fddc"/>
    <path id="Path_7" data-name="Path 7" d="M369.225,300.094a1.725,1.725,0,0,1-1.331-.551,1.835,1.835,0,0,1-.5-1.285V256.14a1.881,1.881,0,0,1,1.835-1.835,1.707,1.707,0,0,1,1.331.551,1.835,1.835,0,0,1,.5,1.285v15.508l-1.56,2.386a22.583,22.583,0,0,1,1.2-7.286,24.271,24.271,0,0,1,3.625-6.836,19.271,19.271,0,0,1,5.827-5.139,15.719,15.719,0,0,1,7.937-1.973,11.606,11.606,0,0,1,2.753.367,1.688,1.688,0,0,1,1.468,1.744,2.046,2.046,0,0,1-.459,1.376,1.468,1.468,0,0,1-1.193.551,2.983,2.983,0,0,1-1.331-.413,4.882,4.882,0,0,0-2.248-.413,11.012,11.012,0,0,0-5.781,1.743,20.582,20.582,0,0,0-5.185,4.634,24.777,24.777,0,0,0-3.716,6.286,17.554,17.554,0,0,0-1.376,6.607v22.941a1.881,1.881,0,0,1-1.835,1.835Z" transform="translate(1825.744 -532.86)" fill="#00fddc"/>
    <path id="Path_8" data-name="Path 8" d="M438.786,254.44a1.707,1.707,0,0,1,1.331.551,1.835,1.835,0,0,1,.5,1.285v26.7q0,8.9-5,13.352t-13.251,4.451q-8.158,0-13.168-4.451t-5-13.352v-26.7a1.881,1.881,0,0,1,1.835-1.835,1.707,1.707,0,0,1,1.331.551,1.835,1.835,0,0,1,.5,1.285v26.7q0,6.974,3.9,10.645t10.6,3.671q6.8,0,10.69-3.671t3.9-10.645v-26.7a1.835,1.835,0,0,1,.5-1.285A1.725,1.725,0,0,1,438.786,254.44Z" transform="translate(1822.712 -532.995)" fill="#00fddc"/>
  </g>
</svg>
